<svg xmlns="http://www.w3.org/2000/svg" viewBox="0 0 64 64" width="64" height="64">
  <rect width="64" height="64" rx="14" fill="#111827"/>
  <!-- Dress silhouette -->
  <path
    fill="#d4a373"
    d="M32 12c2.6 0 4.7 2.1 4.7 4.7 0 1.2-.45 2.3-1.2 3.15l-1.6 1.85 5.4 4.7c1.85 1.6 2.7 4 2.7 6.4v3.6L46 50.5c.4 1.6-.6 3.2-2.25 3.5-.2.05-.4.05-.6.05H20.85c-1.65 0-3-1.35-3-3 0-.2 0-.4.05-.6L21.85 36.4v-3.6c0-2.4.85-4.8 2.7-6.4l5.4-4.7-1.6-1.85A4.65 4.65 0 0 1 27.3 16.7c0-2.6 2.1-4.7 4.7-4.7z"
  />
  <!-- Hanger neck cutout -->
  <circle cx="32" cy="16.5" r="1.8" fill="#111827"/>
</svg>
